<svg version="1.1" xmlns="http://www.w3.org/2000/svg" viewBox="0 0 2287.7412984904577 1352.2934179694357" width="4575.482596980915" height="2704.5868359388714" filter="invert(93%) hue-rotate(180deg)">
  <!-- svg-source:excalidraw -->
  
  <defs>
    <style class="style-fonts">
      @font-face {
        font-family: "Virgil";
        src: url("https://excalidraw.com/Virgil.woff2");
      }
      @font-face {
        font-family: "Cascadia";
        src: url("https://excalidraw.com/Cascadia.woff2");
      }
      @font-face {
        font-family: "Assistant";
        src: url("https://excalidraw.com/Assistant-Regular.woff2");
      }
    </style>
    
  </defs>
  <g stroke-linecap="round" transform="translate(10.432650568244071 49.568216495740444) rotate(0 542.3473905804608 278.9217593840377)"><path d="M32 0 C238.87 2.66, 445.78 2.15, 1052.69 0 M1052.69 0 C1074.32 -1.52, 1084.16 10.5, 1084.69 32 M1084.69 32 C1085.6 181.67, 1084.87 330.81, 1084.69 525.84 M1084.69 525.84 C1085.61 549.1, 1072.18 559.13, 1052.69 557.84 M1052.69 557.84 C727.12 557.49, 401.17 557.78, 32 557.84 M32 557.84 C11.97 557.91, -1.21 547.19, 0 525.84 M0 525.84 C1.11 361.12, 0.78 196.74, 0 32 M0 32 C-1.26 9.87, 11.4 1.83, 32 0" stroke="#1e1e1e" stroke-width="2.5" fill="none" stroke-dasharray="1.5 8"></path></g><g transform="translate(50.01936535793743 10) rotate(0 22.66199493408203 22.5)"><text x="0" y="31.536" font-family="Virgil, Segoe UI Emoji" font-size="36px" fill="#1e1e1e" text-anchor="start" style="white-space: pre;" direction="ltr" dominant-baseline="alphabetic">UI</text></g><g stroke-linecap="round" transform="translate(37.42296942231178 80.96861233027562) rotate(0 250.90841920142506 251.69820864930261)"><path d="M32 0 C137.08 -0.58, 240.47 -1.63, 469.82 0 M32 0 C166.02 1.06, 299.33 0.9, 469.82 0 M469.82 0 C489.73 1.69, 502.72 11.41, 501.82 32 M469.82 0 C491.05 -1.27, 502.32 9.66, 501.82 32 M501.82 32 C503.97 149.91, 504.12 267.78, 501.82 471.4 M501.82 32 C501.05 192.75, 501.4 354.11, 501.82 471.4 M501.82 471.4 C502.52 493.99, 491.17 502.35, 469.82 503.4 M501.82 471.4 C500.74 493.43, 490.5 501.15, 469.82 503.4 M469.82 503.4 C382.46 502.11, 294.84 502.31, 32 503.4 M469.82 503.4 C350.96 501.51, 232.68 501.49, 32 503.4 M32 503.4 C11.55 503.23, -0.77 491.7, 0 471.4 M32 503.4 C8.6 503.72, 1.41 493.21, 0 471.4 M0 471.4 C1.51 335.05, 1.98 200.18, 0 32 M0 471.4 C-0.83 322.57, -0.25 173.5, 0 32 M0 32 C-1.75 12.18, 9.05 -1.41, 32 0 M0 32 C-0.51 9.22, 8.47 1.6, 32 0" stroke="#1e1e1e" stroke-width="2" fill="none"></path></g><g transform="translate(225.77823678864638 92.62039044295716) rotate(0 26.48798370361328 17.5)"><text x="0" y="24.528" font-family="Virgil, Segoe UI Emoji" font-size="28px" fill="#1e1e1e" text-anchor="start" style="white-space: pre;" direction="ltr" dominant-baseline="alphabetic">View</text></g><g transform="translate(48.602753784558445 202.53466602312255) rotate(0 210.55984497070312 175)"><text x="0" y="17.52" font-family="Virgil, Segoe UI Emoji" font-size="20px" fill="#1e1e1e" text-anchor="start" style="white-space: pre;" direction="ltr" dominant-baseline="alphabetic">+ welcomeBanner()</text><text x="0" y="42.519999999999996" font-family="Virgil, Segoe UI Emoji" font-size="20px" fill="#1e1e1e" text-anchor="start" style="white-space: pre;" direction="ltr" dominant-baseline="alphabetic">+ displayMenu()</text><text x="0" y="67.52" font-family="Virgil, Segoe UI Emoji" font-size="20px" fill="#1e1e1e" text-anchor="start" style="white-space: pre;" direction="ltr" dominant-baseline="alphabetic">+ displaySuccess()</text><text x="0" y="92.52" font-family="Virgil, Segoe UI Emoji" font-size="20px" fill="#1e1e1e" text-anchor="start" style="white-space: pre;" direction="ltr" dominant-baseline="alphabetic">+ displayFailiure()</text><text x="0" y="117.52" font-family="Virgil, Segoe UI Emoji" font-size="20px" fill="#1e1e1e" text-anchor="start" style="white-space: pre;" direction="ltr" dominant-baseline="alphabetic">+ displayError</text><text x="0" y="142.52" font-family="Virgil, Segoe UI Emoji" font-size="20px" fill="#1e1e1e" text-anchor="start" style="white-space: pre;" direction="ltr" dominant-baseline="alphabetic">+ displayExit</text><text x="0" y="167.52" font-family="Virgil, Segoe UI Emoji" font-size="20px" fill="#1e1e1e" text-anchor="start" style="white-space: pre;" direction="ltr" dominant-baseline="alphabetic"></text><text x="0" y="192.52" font-family="Virgil, Segoe UI Emoji" font-size="20px" fill="#1e1e1e" text-anchor="start" style="white-space: pre;" direction="ltr" dominant-baseline="alphabetic">+ ask4Date(): LocalDate</text><text x="0" y="217.52" font-family="Virgil, Segoe UI Emoji" font-size="20px" fill="#1e1e1e" text-anchor="start" style="white-space: pre;" direction="ltr" dominant-baseline="alphabetic">+ ask4FutureDate(LocalDate): LocalDate</text><text x="0" y="242.52" font-family="Virgil, Segoe UI Emoji" font-size="20px" fill="#1e1e1e" text-anchor="start" style="white-space: pre;" direction="ltr" dominant-baseline="alphabetic">+ ask4OrderID() : Integer</text><text x="0" y="267.52" font-family="Virgil, Segoe UI Emoji" font-size="20px" fill="#1e1e1e" text-anchor="start" style="white-space: pre;" direction="ltr" dominant-baseline="alphabetic">+ ask4OrderArgs() : Object[4]</text><text x="0" y="292.52" font-family="Virgil, Segoe UI Emoji" font-size="20px" fill="#1e1e1e" text-anchor="start" style="white-space: pre;" direction="ltr" dominant-baseline="alphabetic"></text><text x="0" y="317.52" font-family="Virgil, Segoe UI Emoji" font-size="20px" fill="#1e1e1e" text-anchor="start" style="white-space: pre;" direction="ltr" dominant-baseline="alphabetic">+ displayOrder(Order)</text><text x="0" y="342.52" font-family="Virgil, Segoe UI Emoji" font-size="20px" fill="#1e1e1e" text-anchor="start" style="white-space: pre;" direction="ltr" dominant-baseline="alphabetic">+ displayOrders(List&lt;Order&gt;)</text></g><g stroke-linecap="round"><g transform="translate(36.432494358516124 137.8208136507899) rotate(0 251.0181669936034 0)"><path d="M0.54 0.45 C84.35 0.17, 418.36 -0.5, 501.99 -0.66 M-0.63 -0.37 C83.09 0.02, 417.29 0.38, 501.01 0.53" stroke="#1e1e1e" stroke-width="2" fill="none"></path></g></g><mask></mask><g stroke-linecap="round" transform="translate(565.7835107195954 81.83834697876864) rotate(0 250.9084192014251 142.00606154483336)"><path d="M32 0 C152.23 -0.02, 273.62 0.3, 469.82 0 M32 0 C120.04 0.57, 208.9 0.87, 469.82 0 M469.82 0 C492.83 -1.17, 501.05 11.38, 501.82 32 M469.82 0 C490.52 1.22, 503.14 9.43, 501.82 32 M501.82 32 C501.66 105.03, 502.25 176.39, 501.82 252.01 M501.82 32 C502.61 107.47, 502.59 182.95, 501.82 252.01 M501.82 252.01 C503.64 274.51, 492.84 283.64, 469.82 284.01 M501.82 252.01 C503.66 272.39, 491.24 285.17, 469.82 284.01 M469.82 284.01 C366.08 286.99, 260.72 285.11, 32 284.01 M469.82 284.01 C356.67 284.18, 243.87 284.57, 32 284.01 M32 284.01 C9.58 284.86, -1.52 274.31, 0 252.01 M32 284.01 C12.72 286.02, 1.13 272.93, 0 252.01 M0 252.01 C1.12 193.77, 0.56 137.76, 0 32 M0 252.01 C0.03 165.83, -0.05 79.29, 0 32 M0 32 C-0.84 8.88, 12.5 0.12, 32 0 M0 32 C1.81 11.76, 10.76 -0.68, 32 0" stroke="#1e1e1e" stroke-width="2" fill="none"></path></g><g transform="translate(754.13877808593 93.49012509144995) rotate(0 49.069976806640625 17.5)"><text x="0" y="24.528" font-family="Virgil, Segoe UI Emoji" font-size="28px" fill="#1e1e1e" text-anchor="start" style="white-space: pre;" direction="ltr" dominant-baseline="alphabetic">UserIO</text></g><g transform="translate(582.553160608257 152.19631595672854) rotate(0 94.63993835449219 12.5)"><text x="0" y="17.52" font-family="Virgil, Segoe UI Emoji" font-size="20px" fill="#1e1e1e" text-anchor="start" style="white-space: pre;" direction="ltr" dominant-baseline="alphabetic">- scanner : Scanner</text></g><g stroke-linecap="round"><g transform="translate(565.7835107195954 190.83973805562096) rotate(0 249.7187403620827 0.49093754876957973)"><path d="M-0.42 -0.13 C83.15 0.19, 417.08 1.5, 500.55 1.56 M1.56 -1.24 C85.15 -1.25, 417.08 -0.67, 500.19 -0.25" stroke="#1e1e1e" stroke-width="2" fill="none"></path></g></g><mask></mask><g transform="translate(576.963295081842 200.40440067161512) rotate(0 184.10986328125 75)"><text x="0" y="17.52" font-family="Virgil, Segoe UI Emoji" font-size="20px" fill="#1e1e1e" text-anchor="start" style="white-space: pre;" direction="ltr" dominant-baseline="alphabetic">+ print(String, Object...)</text><text x="0" y="42.519999999999996" font-family="Virgil, Segoe UI Emoji" font-size="20px" fill="#1e1e1e" text-anchor="start" style="white-space: pre;" direction="ltr" dominant-baseline="alphabetic">+ printLn()</text><text x="0" y="67.52" font-family="Virgil, Segoe UI Emoji" font-size="20px" fill="#1e1e1e" text-anchor="start" style="white-space: pre;" direction="ltr" dominant-baseline="alphabetic">+ readString(String) : String</text><text x="0" y="92.52" font-family="Virgil, Segoe UI Emoji" font-size="20px" fill="#1e1e1e" text-anchor="start" style="white-space: pre;" direction="ltr" dominant-baseline="alphabetic">+ readInt(String) : Integer</text><text x="0" y="117.52" font-family="Virgil, Segoe UI Emoji" font-size="20px" fill="#1e1e1e" text-anchor="start" style="white-space: pre;" direction="ltr" dominant-baseline="alphabetic">+ readBigDecimal(String) : BigDecimal</text><text x="0" y="142.52" font-family="Virgil, Segoe UI Emoji" font-size="20px" fill="#1e1e1e" text-anchor="start" style="white-space: pre;" direction="ltr" dominant-baseline="alphabetic">+ readLocalDate(String) : LocalDate</text></g><g stroke-linecap="round"><g transform="translate(564.7930356557997 138.69054829928245) rotate(0 251.01816699360336 0)"><path d="M1.01 -0.7 C84.42 -0.73, 418.13 0.21, 501.58 0.43 M0.08 1.54 C83.19 1.1, 416.94 -0.98, 500.39 -1.47" stroke="#1e1e1e" stroke-width="2" fill="none"></path></g></g><mask></mask><g transform="translate(52.29024810189867 150.82026715874565) rotate(0 64.30995178222656 12.5)"><text x="0" y="17.52" font-family="Virgil, Segoe UI Emoji" font-size="20px" fill="#1e1e1e" text-anchor="start" style="white-space: pre;" direction="ltr" dominant-baseline="alphabetic">- io : UserIO</text></g><g stroke-linecap="round"><g transform="translate(38.87718386264373 189.13503455710747) rotate(0 249.71874036208268 0.49093754876957973)"><path d="M0.88 0.31 C83.79 0.37, 415.36 0.84, 498.44 0.88 M-0.12 -0.57 C83.07 -0.36, 417.52 1.99, 500.62 2.36" stroke="#1e1e1e" stroke-width="2" fill="none"></path></g></g><mask></mask><g transform="translate(1750.7713112138865 1095.314525748513) rotate(0 223.85983276367188 100)"><text x="0" y="17.52" font-family="Virgil, Segoe UI Emoji" font-size="20px" fill="#1e1e1e" text-anchor="start" style="white-space: pre;" direction="ltr" dominant-baseline="alphabetic">+ readData() : boolean</text><text x="0" y="42.519999999999996" font-family="Virgil, Segoe UI Emoji" font-size="20px" fill="#1e1e1e" text-anchor="start" style="white-space: pre;" direction="ltr" dominant-baseline="alphabetic">+ writeData() : boolean</text><text x="0" y="67.52" font-family="Virgil, Segoe UI Emoji" font-size="20px" fill="#1e1e1e" text-anchor="start" style="white-space: pre;" direction="ltr" dominant-baseline="alphabetic">+ exportData() : boolean</text><text x="0" y="92.52" font-family="Virgil, Segoe UI Emoji" font-size="20px" fill="#1e1e1e" text-anchor="start" style="white-space: pre;" direction="ltr" dominant-baseline="alphabetic"></text><text x="0" y="117.52" font-family="Virgil, Segoe UI Emoji" font-size="20px" fill="#1e1e1e" text-anchor="start" style="white-space: pre;" direction="ltr" dominant-baseline="alphabetic">+ getOrdersOnDate(LocalDate) : Set&lt;Order&gt;</text><text x="0" y="142.52" font-family="Virgil, Segoe UI Emoji" font-size="20px" fill="#1e1e1e" text-anchor="start" style="white-space: pre;" direction="ltr" dominant-baseline="alphabetic">+ addOrder(Order) : boolean</text><text x="0" y="167.52" font-family="Virgil, Segoe UI Emoji" font-size="20px" fill="#1e1e1e" text-anchor="start" style="white-space: pre;" direction="ltr" dominant-baseline="alphabetic">+ updateOrder(Order) : boolean</text><text x="0" y="192.52" font-family="Virgil, Segoe UI Emoji" font-size="20px" fill="#1e1e1e" text-anchor="start" style="white-space: pre;" direction="ltr" dominant-baseline="alphabetic">+ removeOrder(String) : boolean</text></g><g stroke-linecap="round" transform="translate(1708.6688046362053 890.6160951634773) rotate(0 284.5362469271263 225.39579875382947)"><path d="M32 0 C199.63 0.28, 366.13 0.51, 537.07 0 M537.07 0 C559.09 -1.75, 568.55 9.46, 569.07 32 M569.07 32 C568.06 183.89, 566.95 336.83, 569.07 418.79 M569.07 418.79 C568.02 440.8, 558.06 452.33, 537.07 450.79 M537.07 450.79 C383.48 452.65, 229.9 452.2, 32 450.79 M32 450.79 C12.51 451.17, -1.14 441.68, 0 418.79 M0 418.79 C-2.24 272.02, -1.21 123.95, 0 32 M0 32 C0.24 11.06, 8.78 -0.83, 32 0" stroke="#1e1e1e" stroke-width="2.5" fill="none" stroke-dasharray="1.5 8"></path></g><g transform="translate(1748.2555194258987 851.0478786677371) rotate(0 36.01799011230469 22.5)"><text x="0" y="31.536" font-family="Virgil, Segoe UI Emoji" font-size="36px" fill="#1e1e1e" text-anchor="start" style="white-space: pre;" direction="ltr" dominant-baseline="alphabetic">Dao</text></g><g stroke-linecap="round" transform="translate(1735.6591234902733 916.5224007132305) rotate(0 255.1295829755088 196.79774803057637)"><path d="M32 0 C190.42 -2.68, 347.91 -2.42, 478.26 0 M32 0 C208.35 -1.85, 383.93 -1.71, 478.26 0 M478.26 0 C498.54 0.68, 509.91 12.2, 510.26 32 M478.26 0 C499.69 2.2, 511.9 10.81, 510.26 32 M510.26 32 C511.86 148.08, 509.82 264.71, 510.26 361.6 M510.26 32 C510.65 157.6, 511.25 282.45, 510.26 361.6 M510.26 361.6 C510.5 383.33, 497.71 392.77, 478.26 393.6 M510.26 361.6 C510.6 383.71, 498.95 394.07, 478.26 393.6 M478.26 393.6 C309.42 393.22, 142.94 392.99, 32 393.6 M478.26 393.6 C314.57 392.39, 151.19 391.52, 32 393.6 M32 393.6 C12.36 394.3, 1.55 384.32, 0 361.6 M32 393.6 C10.32 392.25, -0.78 382.53, 0 361.6 M0 361.6 C-1.72 262.14, -2.75 159.35, 0 32 M0 361.6 C1.73 287.12, 1.42 213.36, 0 32 M0 32 C-1.2 10.68, 10 -1.88, 32 0 M0 32 C1.41 11.97, 9.83 -1.44, 32 0" stroke="#1e1e1e" stroke-width="2" fill="none"></path></g><g transform="translate(1943.8477977801303 933.2408502198663) rotate(0 28.013992309570312 17.5)"><text x="0" y="24.528" font-family="Virgil, Segoe UI Emoji" font-size="28px" fill="#1e1e1e" text-anchor="start" style="white-space: pre;" direction="ltr" dominant-baseline="alphabetic">Dao</text></g><g stroke-linecap="round"><g transform="translate(1734.6686484264776 978.8686923185268) rotate(0 255.23933076768708 0)"><path d="M-0.92 0.86 C84.41 0.55, 426.05 -0.5, 511.22 -0.71 M0.8 0.27 C86.1 0.61, 425.94 0.37, 510.66 0.46" stroke="#1e1e1e" stroke-width="2" fill="none"></path></g></g><mask></mask><g transform="translate(1753.8829878192666 992.5394911259517) rotate(0 240.74981689453125 37.5)"><text x="0" y="17.52" font-family="Virgil, Segoe UI Emoji" font-size="20px" fill="#1e1e1e" text-anchor="start" style="white-space: pre;" direction="ltr" dominant-baseline="alphabetic">- orders : Set&lt;Order&gt;</text><text x="0" y="42.519999999999996" font-family="Virgil, Segoe UI Emoji" font-size="20px" fill="#1e1e1e" text-anchor="start" style="white-space: pre;" direction="ltr" dominant-baseline="alphabetic">- states : Set&lt;State&gt;</text><text x="0" y="67.52" font-family="Virgil, Segoe UI Emoji" font-size="20px" fill="#1e1e1e" text-anchor="start" style="white-space: pre;" direction="ltr" dominant-baseline="alphabetic">- products : Hashmap&lt;LocalDate, Set&lt;Product&gt;&gt;</text></g><g stroke-linecap="round"><g transform="translate(1737.113337930605 1082.182913224845) rotate(0 253.93990413616643 -0.7754083629631623)"><path d="M-0.39 -0.34 C84.02 -0.42, 422.57 -1.1, 507.25 -1.15 M1.6 -1.57 C86.35 -1.95, 425.43 -2.9, 509.63 -3.05" stroke="#1e1e1e" stroke-width="2" fill="none"></path></g></g><mask></mask><g stroke-linecap="round" transform="translate(10 656.1094382830476) rotate(0 828.1150562402088 343.09198984319414)"><path d="M32 0 C378.87 3.15, 727.01 3.78, 1624.23 0 M1624.23 0 C1644.23 1.93, 1656.73 11.27, 1656.23 32 M1656.23 32 C1656.41 263.62, 1657.19 493.05, 1656.23 654.18 M1656.23 654.18 C1655.09 675.86, 1643.75 686.47, 1624.23 686.18 M1624.23 686.18 C1127.07 687.29, 631.55 686.68, 32 686.18 M32 686.18 C9.16 686.38, -0.26 676.78, 0 654.18 M0 654.18 C1.47 481.43, 2.53 310.53, 0 32 M0 32 C-1.65 10.39, 12.36 -1.85, 32 0" stroke="#1e1e1e" stroke-width="2.5" fill="none" stroke-dasharray="1.5 8"></path></g><g transform="translate(48.13138774089293 611.731788054498) rotate(0 41.579986572265625 22.5)"><text x="0" y="31.536" font-family="Virgil, Segoe UI Emoji" font-size="36px" fill="#1e1e1e" text-anchor="start" style="white-space: pre;" direction="ltr" dominant-baseline="alphabetic">DTO</text></g><g stroke-linecap="round" transform="translate(37.09811503714809 684.3943260640305) rotate(0 250.90841920142506 173.99678913254093)"><path d="M32 0 C143.07 -0.78, 253.14 -0.27, 469.82 0 M32 0 C155.84 1.2, 279.84 1.35, 469.82 0 M469.82 0 C492.92 -0.93, 500.16 10.04, 501.82 32 M469.82 0 C491.66 1.86, 503.52 11.88, 501.82 32 M501.82 32 C500.51 111.84, 503.44 192.01, 501.82 315.99 M501.82 32 C503.08 122.96, 504.06 215.04, 501.82 315.99 M501.82 315.99 C502.57 338.49, 489.22 349.45, 469.82 347.99 M501.82 315.99 C499.97 338.54, 492.88 347.46, 469.82 347.99 M469.82 347.99 C314.47 347.12, 160.13 346.27, 32 347.99 M469.82 347.99 C345.59 348.41, 221.55 347.79, 32 347.99 M32 347.99 C10.3 348.73, -1.36 337.9, 0 315.99 M32 347.99 C9.72 345.99, -1.82 336.91, 0 315.99 M0 315.99 C-0.54 250.17, 0.18 182.41, 0 32 M0 315.99 C1.06 231.67, 0.77 145.65, 0 32 M0 32 C-1.22 12.55, 8.84 -1.54, 32 0 M0 32 C-1.89 10.59, 9.44 -1.91, 32 0" stroke="#1e1e1e" stroke-width="2" fill="none"></path></g><g transform="translate(225.45338240348246 696.046104176712) rotate(0 41.327980041503906 17.5)"><text x="0" y="24.528" font-family="Virgil, Segoe UI Emoji" font-size="28px" fill="#1e1e1e" text-anchor="start" style="white-space: pre;" direction="ltr" dominant-baseline="alphabetic">State</text></g><g transform="translate(56.662724343725586 763.1498014056571) rotate(0 24.04998016357422 12.5)"><text x="0" y="17.52" font-family="Virgil, Segoe UI Emoji" font-size="20px" fill="#fdf8f6" text-anchor="start" style="white-space: pre;" direction="ltr" dominant-baseline="alphabetic">Stat</text></g><g transform="translate(53.86776492580975 761.7522950419906) rotate(0 119.61991882324219 37.5)"><text x="0" y="17.52" font-family="Virgil, Segoe UI Emoji" font-size="20px" fill="#1e1e1e" text-anchor="start" style="white-space: pre;" direction="ltr" dominant-baseline="alphabetic">- abr : String </text><text x="0" y="42.519999999999996" font-family="Virgil, Segoe UI Emoji" font-size="20px" fill="#1e1e1e" text-anchor="start" style="white-space: pre;" direction="ltr" dominant-baseline="alphabetic">- name : String </text><text x="0" y="67.52" font-family="Virgil, Segoe UI Emoji" font-size="20px" fill="#1e1e1e" text-anchor="start" style="white-space: pre;" direction="ltr" dominant-baseline="alphabetic">- taxRate : BigDecimal </text></g><g stroke-linecap="round"><g transform="translate(37.09811503714809 848.3957171408828) rotate(0 249.71874036208268 0.49093754876957973)"><path d="M-1.06 -0.67 C82.27 -0.19, 416.59 1.66, 500.18 1.93 M0.59 1.6 C83.81 1.83, 416.34 0.2, 499.63 0.31" stroke="#1e1e1e" stroke-width="2" fill="none"></path></g></g><mask></mask><g transform="translate(48.277899399394755 869.6270464235439) rotate(0 184.3198699951172 75)"><text x="0" y="17.52" font-family="Virgil, Segoe UI Emoji" font-size="20px" fill="#1e1e1e" text-anchor="start" style="white-space: pre;" direction="ltr" dominant-baseline="alphabetic">+ getter [abr, name, taxPercentage]</text><text x="0" y="42.519999999999996" font-family="Virgil, Segoe UI Emoji" font-size="20px" fill="#1e1e1e" text-anchor="start" style="white-space: pre;" direction="ltr" dominant-baseline="alphabetic"></text><text x="0" y="67.52" font-family="Virgil, Segoe UI Emoji" font-size="20px" fill="#1e1e1e" text-anchor="start" style="white-space: pre;" direction="ltr" dominant-baseline="alphabetic">+ *equals(abr) : boolean</text><text x="0" y="92.52" font-family="Virgil, Segoe UI Emoji" font-size="20px" fill="#1e1e1e" text-anchor="start" style="white-space: pre;" direction="ltr" dominant-baseline="alphabetic">+ *toString() : String</text><text x="0" y="117.52" font-family="Virgil, Segoe UI Emoji" font-size="20px" fill="#1e1e1e" text-anchor="start" style="white-space: pre;" direction="ltr" dominant-baseline="alphabetic">"abr,name,taxRate"</text><text x="0" y="142.52" font-family="Virgil, Segoe UI Emoji" font-size="20px" fill="#1e1e1e" text-anchor="start" style="white-space: pre;" direction="ltr" dominant-baseline="alphabetic">+ parseState(String) : State</text></g><g transform="translate(485.18376726855695 760.070835602777) rotate(0 24.04998016357422 12.5)"><text x="0" y="17.52" font-family="Virgil, Segoe UI Emoji" font-size="20px" fill="#fdf8f6" text-anchor="start" style="white-space: pre;" direction="ltr" dominant-baseline="alphabetic">Stat</text></g><g stroke-linecap="round"><g transform="translate(36.107639973352434 741.2465273845447) rotate(0 251.0181669936034 0)"><path d="M0.38 0.07 C83.69 0.03, 417.37 -1.2, 500.94 -1.06 M-0.88 -0.93 C82.69 -0.8, 419.45 -0.08, 503.08 -0.08" stroke="#1e1e1e" stroke-width="2" fill="none"></path></g></g><mask></mask><g stroke-linecap="round"><g stroke-opacity="0.6" fill-opacity="0.6" transform="translate(69.41814333457478 1015.0750303022536) rotate(0 138.0004882208277 0)"><path d="M-0.07 -0.68 C46.29 -0.59, 231.02 -0.38, 276.94 -0.09 M-1.56 1.57 C44.82 1.92, 230.5 1.78, 276.49 1.4" stroke="#1e1e1e" stroke-width="1" fill="none"></path></g></g><mask></mask><g stroke-linecap="round" transform="translate(1134.6597135529123 685.4123531750296) rotate(0 250.9084192014251 162.77684049524498)"><path d="M32 0 C168.84 -0.3, 306.94 -0.49, 469.82 0 M32 0 C186.69 -0.46, 341.29 0.11, 469.82 0 M469.82 0 C489.79 -0.52, 502.17 10.1, 501.82 32 M469.82 0 C489.55 2.13, 499.78 11.14, 501.82 32 M501.82 32 C503.27 97.8, 503.25 163.1, 501.82 293.55 M501.82 32 C502.93 87.76, 502.74 143.26, 501.82 293.55 M501.82 293.55 C501.73 314.64, 492.06 325.01, 469.82 325.55 M501.82 293.55 C500.25 313.74, 492.76 327.61, 469.82 325.55 M469.82 325.55 C315.15 324.3, 158.83 325.02, 32 325.55 M469.82 325.55 C297.9 323.46, 126.97 323.48, 32 325.55 M32 325.55 C11.21 326.69, 1.52 315.54, 0 293.55 M32 325.55 C10.76 325.33, -1.26 313.54, 0 293.55 M0 293.55 C-2.67 205.53, -0.79 114.94, 0 32 M0 293.55 C-0.9 230.21, 0.44 166.81, 0 32 M0 32 C-1.02 10.84, 8.69 1.88, 32 0 M0 32 C-0.22 10.43, 10.92 -2.18, 32 0" stroke="#1e1e1e" stroke-width="2" fill="none"></path></g><g transform="translate(1329.634367885008 697.0641312877109) rotate(0 53.88597869873047 17.5)"><text x="0" y="24.528" font-family="Virgil, Segoe UI Emoji" font-size="28px" fill="#1e1e1e" text-anchor="start" style="white-space: pre;" direction="ltr" dominant-baseline="alphabetic">Product</text></g><g transform="translate(1154.2243228594898 764.1678285166562) rotate(0 24.04998016357422 12.5)"><text x="0" y="17.52" font-family="Virgil, Segoe UI Emoji" font-size="20px" fill="#fdf8f6" text-anchor="start" style="white-space: pre;" direction="ltr" dominant-baseline="alphabetic">Stat</text></g><g transform="translate(1150.427695187488 759.9468020173475) rotate(0 120.43990325927734 37.5)"><text x="0" y="17.52" font-family="Virgil, Segoe UI Emoji" font-size="20px" fill="#1e1e1e" text-anchor="start" style="white-space: pre;" direction="ltr" dominant-baseline="alphabetic">- type : String</text><text x="0" y="42.519999999999996" font-family="Virgil, Segoe UI Emoji" font-size="20px" fill="#1e1e1e" text-anchor="start" style="white-space: pre;" direction="ltr" dominant-baseline="alphabetic">- costPSF : BigDecimal</text><text x="0" y="67.52" font-family="Virgil, Segoe UI Emoji" font-size="20px" fill="#1e1e1e" text-anchor="start" style="white-space: pre;" direction="ltr" dominant-baseline="alphabetic">- labourPSF : BigDecimal</text></g><g transform="translate(1582.7453657843212 761.0888627137759) rotate(0 24.04998016357422 12.5)"><text x="0" y="17.52" font-family="Virgil, Segoe UI Emoji" font-size="20px" fill="#fdf8f6" text-anchor="start" style="white-space: pre;" direction="ltr" dominant-baseline="alphabetic">Stat</text></g><g stroke-linecap="round"><g transform="translate(1133.6692384891167 742.2645544955438) rotate(0 251.01816699360336 0)"><path d="M1.03 0.46 C84.47 0.56, 417.69 -0.18, 501.22 -0.31 M0.12 -0.34 C83.88 0.01, 419.93 0.87, 503.51 1.06" stroke="#1e1e1e" stroke-width="2" fill="none"></path></g></g><mask></mask><g stroke-linecap="round"><g transform="translate(1133.216196653335 855.4892116069265) rotate(0 252.71088407371985 -0.46454206631199213)"><path d="M0 0 C84.24 -0.15, 421.18 -0.77, 505.42 -0.93 M0 0 C84.24 -0.15, 421.18 -0.77, 505.42 -0.93" stroke="#1e1e1e" stroke-width="2" fill="none"></path></g></g><mask></mask><g stroke-linecap="round" transform="translate(580.502806128241 682.9049688578951) rotate(0 250.9084192014251 305.26964986287317)"><path d="M32 0 C125.42 -0.49, 218.74 -1.05, 469.82 0 M32 0 C133.25 1.66, 234.07 1.86, 469.82 0 M469.82 0 C489.92 0.6, 501.76 10.84, 501.82 32 M469.82 0 C490.91 -2, 499.81 11.28, 501.82 32 M501.82 32 C504.39 214.37, 504.39 396.53, 501.82 578.54 M501.82 32 C504.11 233.85, 503.57 435.53, 501.82 578.54 M501.82 578.54 C502.95 598.45, 491.94 611.41, 469.82 610.54 M501.82 578.54 C499.85 598.06, 491.1 609.81, 469.82 610.54 M469.82 610.54 C309.99 612.13, 148.07 611.76, 32 610.54 M469.82 610.54 C344.52 612.59, 218.62 612.71, 32 610.54 M32 610.54 C10.88 611.99, 1.25 601.87, 0 578.54 M32 610.54 C12.03 611.63, 0.75 599.82, 0 578.54 M0 578.54 C1.94 432.83, 1.95 287.67, 0 32 M0 578.54 C-1.17 431.97, -1 285.89, 0 32 M0 32 C0.82 12.27, 12.01 0.82, 32 0 M0 32 C1.16 10.29, 11.46 -1.83, 32 0" stroke="#1e1e1e" stroke-width="2" fill="none"></path></g><g transform="translate(790.2718907149447 694.5567469705769) rotate(0 37.827980041503906 17.5)"><text x="0" y="24.528" font-family="Virgil, Segoe UI Emoji" font-size="28px" fill="#1e1e1e" text-anchor="start" style="white-space: pre;" direction="ltr" dominant-baseline="alphabetic">Order</text></g><g transform="translate(600.0674154348189 761.6604441995217) rotate(0 24.04998016357422 12.5)"><text x="0" y="17.52" font-family="Virgil, Segoe UI Emoji" font-size="20px" fill="#fdf8f6" text-anchor="start" style="white-space: pre;" direction="ltr" dominant-baseline="alphabetic">Stat</text></g><g transform="translate(597.2724560169027 756.4944252424974) rotate(0 117.75989532470703 75)"><text x="0" y="17.52" font-family="Virgil, Segoe UI Emoji" font-size="20px" fill="#1e1e1e" text-anchor="start" style="white-space: pre;" direction="ltr" dominant-baseline="alphabetic">- id : Integer</text><text x="0" y="42.519999999999996" font-family="Virgil, Segoe UI Emoji" font-size="20px" fill="#1e1e1e" text-anchor="start" style="white-space: pre;" direction="ltr" dominant-baseline="alphabetic">- customerName : String</text><text x="0" y="67.52" font-family="Virgil, Segoe UI Emoji" font-size="20px" fill="#1e1e1e" text-anchor="start" style="white-space: pre;" direction="ltr" dominant-baseline="alphabetic">- state : State</text><text x="0" y="92.52" font-family="Virgil, Segoe UI Emoji" font-size="20px" fill="#1e1e1e" text-anchor="start" style="white-space: pre;" direction="ltr" dominant-baseline="alphabetic">- product : Product</text><text x="0" y="117.52" font-family="Virgil, Segoe UI Emoji" font-size="20px" fill="#1e1e1e" text-anchor="start" style="white-space: pre;" direction="ltr" dominant-baseline="alphabetic">- area : BigDecimal</text><text x="0" y="142.52" font-family="Virgil, Segoe UI Emoji" font-size="20px" fill="#1e1e1e" text-anchor="start" style="white-space: pre;" direction="ltr" dominant-baseline="alphabetic"></text></g><g transform="translate(1028.5884583596503 758.581478396642) rotate(0 24.04998016357422 12.5)"><text x="0" y="17.52" font-family="Virgil, Segoe UI Emoji" font-size="20px" fill="#fdf8f6" text-anchor="start" style="white-space: pre;" direction="ltr" dominant-baseline="alphabetic">Stat</text></g><g stroke-linecap="round"><g transform="translate(579.5123310644453 740.699298326749) rotate(0 251.01816699360336 0)"><path d="M-0.03 0.1 C83.74 -0.13, 418.41 -1.08, 501.91 -1.04 M-1.51 -0.89 C82.16 -1.04, 416.76 -0.5, 500.9 -0.05" stroke="#1e1e1e" stroke-width="2" fill="none"></path></g></g><mask></mask><g stroke-linecap="round"><g transform="translate(579.8339347743763 898.2971947921268) rotate(0 251.16807836033843 -1.1875603705426556)"><path d="M1.08 -0.51 C84.69 -0.96, 419.11 -2.09, 502.51 -2.55 M0.19 -1.83 C83.58 -2.1, 417.69 -1, 501.66 -1.11" stroke="#1e1e1e" stroke-width="2" fill="none"></path></g></g><mask></mask><g transform="translate(593.5259043815513 903.1477878133586) rotate(0 230.30979919433594 150)"><text x="0" y="17.52" font-family="Virgil, Segoe UI Emoji" font-size="20px" fill="#1e1e1e" text-anchor="start" style="white-space: pre;" direction="ltr" dominant-baseline="alphabetic">+ constructor [id, customerName, state, </text><text x="0" y="42.519999999999996" font-family="Virgil, Segoe UI Emoji" font-size="20px" fill="#1e1e1e" text-anchor="start" style="white-space: pre;" direction="ltr" dominant-baseline="alphabetic">product, area]</text><text x="0" y="67.52" font-family="Virgil, Segoe UI Emoji" font-size="20px" fill="#1e1e1e" text-anchor="start" style="white-space: pre;" direction="ltr" dominant-baseline="alphabetic">+ getters [id, customerName, state, product, </text><text x="0" y="92.52" font-family="Virgil, Segoe UI Emoji" font-size="20px" fill="#1e1e1e" text-anchor="start" style="white-space: pre;" direction="ltr" dominant-baseline="alphabetic">area]</text><text x="0" y="117.52" font-family="Virgil, Segoe UI Emoji" font-size="20px" fill="#1e1e1e" text-anchor="start" style="white-space: pre;" direction="ltr" dominant-baseline="alphabetic">+ getMaterialCost() : BigDecimal</text><text x="0" y="142.52" font-family="Virgil, Segoe UI Emoji" font-size="20px" fill="#1e1e1e" text-anchor="start" style="white-space: pre;" direction="ltr" dominant-baseline="alphabetic">+ getLaborCost() : BigDecimal</text><text x="0" y="167.52" font-family="Virgil, Segoe UI Emoji" font-size="20px" fill="#1e1e1e" text-anchor="start" style="white-space: pre;" direction="ltr" dominant-baseline="alphabetic">+ getTax() : BigDecimal</text><text x="0" y="192.52" font-family="Virgil, Segoe UI Emoji" font-size="20px" fill="#1e1e1e" text-anchor="start" style="white-space: pre;" direction="ltr" dominant-baseline="alphabetic">+ getTotal() : BigDecimal</text><text x="0" y="217.52" font-family="Virgil, Segoe UI Emoji" font-size="20px" fill="#1e1e1e" text-anchor="start" style="white-space: pre;" direction="ltr" dominant-baseline="alphabetic"></text><text x="0" y="242.52" font-family="Virgil, Segoe UI Emoji" font-size="20px" fill="#1e1e1e" text-anchor="start" style="white-space: pre;" direction="ltr" dominant-baseline="alphabetic">+ *equals(id) : boolean</text><text x="0" y="267.52" font-family="Virgil, Segoe UI Emoji" font-size="20px" fill="#1e1e1e" text-anchor="start" style="white-space: pre;" direction="ltr" dominant-baseline="alphabetic">+ *toString() : String</text><text x="0" y="292.52" font-family="Virgil, Segoe UI Emoji" font-size="20px" fill="#1e1e1e" text-anchor="start" style="white-space: pre;" direction="ltr" dominant-baseline="alphabetic">+ parseOrder(String) : Order</text></g><g transform="translate(1151.1920049963978 870.0855280017062) rotate(0 187.4198455810547 62.5)"><text x="0" y="17.52" font-family="Virgil, Segoe UI Emoji" font-size="20px" fill="#1e1e1e" text-anchor="start" style="white-space: pre;" direction="ltr" dominant-baseline="alphabetic">+ getters [type, costPSF, labourPSF]</text><text x="0" y="42.519999999999996" font-family="Virgil, Segoe UI Emoji" font-size="20px" fill="#1e1e1e" text-anchor="start" style="white-space: pre;" direction="ltr" dominant-baseline="alphabetic"></text><text x="0" y="67.52" font-family="Virgil, Segoe UI Emoji" font-size="20px" fill="#1e1e1e" text-anchor="start" style="white-space: pre;" direction="ltr" dominant-baseline="alphabetic">+ *equals(type) : boolean</text><text x="0" y="92.52" font-family="Virgil, Segoe UI Emoji" font-size="20px" fill="#1e1e1e" text-anchor="start" style="white-space: pre;" direction="ltr" dominant-baseline="alphabetic">+ *toString() : String</text><text x="0" y="117.52" font-family="Virgil, Segoe UI Emoji" font-size="20px" fill="#1e1e1e" text-anchor="start" style="white-space: pre;" direction="ltr" dominant-baseline="alphabetic">+ parseProduct(String) : Product</text></g><g stroke-linecap="round" transform="translate(1126.7833991821697 352.61304537547437) rotate(0 279.4708632801952 127.63441875373775)"><path d="M32 0 C181.69 1.45, 333.26 0.97, 526.94 0 M526.94 0 C548.41 1.15, 558.64 10.47, 558.94 32 M558.94 32 C555.31 93.43, 557.03 152.02, 558.94 223.27 M558.94 223.27 C557.31 246.4, 547.79 255.92, 526.94 255.27 M526.94 255.27 C337.16 254.21, 147.79 254.4, 32 255.27 M32 255.27 C12 255.26, 0.88 245.65, 0 223.27 M0 223.27 C-0.86 180.09, -0.64 136.25, 0 32 M0 32 C-0.48 11.64, 9.04 1.59, 32 0" stroke="#1e1e1e" stroke-width="2.5" fill="none" stroke-dasharray="1.5 8"></path></g><g transform="translate(1166.370113971863 313.04482887973415) rotate(0 84.90596771240234 22.5)"><text x="0" y="31.536" font-family="Virgil, Segoe UI Emoji" font-size="36px" fill="#1e1e1e" text-anchor="start" style="white-space: pre;" direction="ltr" dominant-baseline="alphabetic">Controller</text></g><g stroke-linecap="round" transform="translate(1153.7737180362374 384.01344121001) rotate(0 250.9084192014251 95.9328458817165)"><path d="M32 0 C148.48 2.64, 264.67 1.96, 469.82 0 M32 0 C167.73 2.48, 304.35 2.25, 469.82 0 M469.82 0 C489.51 1.8, 501.33 11.32, 501.82 32 M469.82 0 C493.06 -0.43, 500.79 10.39, 501.82 32 M501.82 32 C503.49 67.92, 503.03 104.92, 501.82 159.87 M501.82 32 C502.21 62.32, 502.32 92.31, 501.82 159.87 M501.82 159.87 C501.34 182.18, 489.52 193.45, 469.82 191.87 M501.82 159.87 C499.91 183.43, 491.49 190.86, 469.82 191.87 M469.82 191.87 C343.49 191.91, 216.66 191.91, 32 191.87 M469.82 191.87 C295.97 191.55, 122.25 190.95, 32 191.87 M32 191.87 C11.05 191.77, 0.43 182.1, 0 159.87 M32 191.87 C12.37 191.51, -2.23 180.49, 0 159.87 M0 159.87 C0.3 132.46, -0.64 102.3, 0 32 M0 159.87 C-1.37 119.79, -1.78 77.22, 0 32 M0 32 C0.51 12.03, 11.91 0.77, 32 0 M0 32 C-1.91 12.72, 11.86 1.68, 32 0" stroke="#1e1e1e" stroke-width="2" fill="none"></path></g><g transform="translate(1336.2216620583724 395.6652193226913) rotate(0 66.03797149658203 17.5)"><text x="0" y="24.528" font-family="Virgil, Segoe UI Emoji" font-size="28px" fill="#1e1e1e" text-anchor="start" style="white-space: pre;" direction="ltr" dominant-baseline="alphabetic">Controller</text></g><g transform="translate(1164.953502398484 532.5794949028567) rotate(0 33.42997741699219 12.5)"><text x="0" y="17.52" font-family="Virgil, Segoe UI Emoji" font-size="20px" fill="#1e1e1e" text-anchor="start" style="white-space: pre;" direction="ltr" dominant-baseline="alphabetic">+ run()</text></g><g stroke-linecap="round"><g transform="translate(1152.7832429724417 440.8656425305238) rotate(0 251.01816699360336 0)"><path d="M-1.14 -1.09 C82.37 -0.91, 417.09 0.87, 500.95 1.16 M0.46 0.96 C84.34 0.81, 419.63 0.04, 503.09 -0.36" stroke="#1e1e1e" stroke-width="2" fill="none"></path></g></g><mask></mask><g transform="translate(1171.997582365231 454.53644133794876) rotate(0 88.39991760253906 25)"><text x="0" y="17.52" font-family="Virgil, Segoe UI Emoji" font-size="20px" fill="#1e1e1e" text-anchor="start" style="white-space: pre;" direction="ltr" dominant-baseline="alphabetic">- view : View</text><text x="0" y="42.519999999999996" font-family="Virgil, Segoe UI Emoji" font-size="20px" fill="#1e1e1e" text-anchor="start" style="white-space: pre;" direction="ltr" dominant-baseline="alphabetic">- service : Service</text></g><g stroke-linecap="round"><g transform="translate(1155.2279324765693 517.1798634368419) rotate(0 249.7187403620827 0.49093754876957973)"><path d="M0.05 0.8 C83.32 1, 416.09 1.61, 499.43 1.51 M-1.39 0.17 C81.75 -0.02, 414.97 -0.49, 498.48 -0.34" stroke="#1e1e1e" stroke-width="2" fill="none"></path></g></g><mask></mask><g stroke-linecap="round" transform="translate(1718.5927446522894 281.0432666743526) rotate(0 279.4708632801951 162.92456480422936)"><path d="M32 0 C179.72 2.27, 325.89 1.69, 526.94 0 M526.94 0 C550.17 -0.06, 560.51 10.69, 558.94 32 M558.94 32 C558.73 93.01, 558.29 153.4, 558.94 293.85 M558.94 293.85 C560.92 315.77, 548.79 327.29, 526.94 325.85 M526.94 325.85 C392.52 326.73, 259.3 327.06, 32 325.85 M32 325.85 C12.35 324.66, -1.29 316.72, 0 293.85 M0 293.85 C0.58 200.91, -0.47 105.83, 0 32 M0 32 C-0.6 9.9, 9.44 -0.06, 32 0" stroke="#1e1e1e" stroke-width="2.5" fill="none" stroke-dasharray="1.5 8"></path></g><g transform="translate(1758.1794594419828 241.47505017861238) rotate(0 60.767967224121094 22.5)"><text x="0" y="31.536" font-family="Virgil, Segoe UI Emoji" font-size="36px" fill="#1e1e1e" text-anchor="start" style="white-space: pre;" direction="ltr" dominant-baseline="alphabetic">Service</text></g><g stroke-linecap="round" transform="translate(1745.5830635063573 306.94957222410574) rotate(0 250.90841920142498 133.9700031928213)"><path d="M32 0 C193.16 0.09, 353.21 0.13, 469.82 0 M32 0 C133.36 -0.32, 234.29 -0.34, 469.82 0 M469.82 0 C493.13 0.59, 502.33 12.11, 501.82 32 M469.82 0 C490.47 0.01, 503.48 8.94, 501.82 32 M501.82 32 C503.28 77.5, 500.62 126.5, 501.82 235.94 M501.82 32 C501.68 105.94, 501.1 178.67, 501.82 235.94 M501.82 235.94 C501.21 256.51, 489.92 267.88, 469.82 267.94 M501.82 235.94 C501.37 259.04, 490.22 268.43, 469.82 267.94 M469.82 267.94 C315.4 269.24, 160.21 269.72, 32 267.94 M469.82 267.94 C344.68 270.59, 218.55 270.19, 32 267.94 M32 267.94 C12.25 267, 1.45 255.54, 0 235.94 M32 267.94 C8.72 267.21, -1.23 255.98, 0 235.94 M0 235.94 C1.09 179.77, 0.84 121.73, 0 32 M0 235.94 C-0.72 154.57, -0.37 73.02, 0 32 M0 32 C-1.71 11.38, 9.85 1.6, 32 0 M0 32 C-1.51 8.92, 8.55 -0.03, 32 0" stroke="#1e1e1e" stroke-width="2" fill="none"></path></g><g transform="translate(1946.9549169674606 320.94133500581256) rotate(0 47.26397705078125 17.5)"><text x="0" y="24.528" font-family="Virgil, Segoe UI Emoji" font-size="28px" fill="#1e1e1e" text-anchor="start" style="white-space: pre;" direction="ltr" dominant-baseline="alphabetic">Service</text></g><g transform="translate(1756.762847868604 437.00971620173493) rotate(0 223.85983276367188 62.5)"><text x="0" y="17.52" font-family="Virgil, Segoe UI Emoji" font-size="20px" fill="#1e1e1e" text-anchor="start" style="white-space: pre;" direction="ltr" dominant-baseline="alphabetic">+ getOrdersOnDate(LocalDate) : Set&lt;Order&gt;</text><text x="0" y="42.519999999999996" font-family="Virgil, Segoe UI Emoji" font-size="20px" fill="#1e1e1e" text-anchor="start" style="white-space: pre;" direction="ltr" dominant-baseline="alphabetic">+ addOrder(Integer, Object[]) : boolean</text><text x="0" y="67.52" font-family="Virgil, Segoe UI Emoji" font-size="20px" fill="#1e1e1e" text-anchor="start" style="white-space: pre;" direction="ltr" dominant-baseline="alphabetic">+ updateOrder(Integer, Object[]) : boolean</text><text x="0" y="92.52" font-family="Virgil, Segoe UI Emoji" font-size="20px" fill="#1e1e1e" text-anchor="start" style="white-space: pre;" direction="ltr" dominant-baseline="alphabetic">+ removeOrder(Integer) : boolean</text><text x="0" y="117.52" font-family="Virgil, Segoe UI Emoji" font-size="20px" fill="#1e1e1e" text-anchor="start" style="white-space: pre;" direction="ltr" dominant-baseline="alphabetic">+ exportAllData() : boolean</text></g><g stroke-linecap="round"><g transform="translate(1744.5925884425617 369.29586382940204) rotate(0 251.01816699360347 0)"><path d="M-0.65 0.27 C83.14 0.48, 418.89 0.4, 502.73 0.42 M1.21 -0.63 C84.9 -0.72, 418.71 -1.29, 502.15 -1.48" stroke="#1e1e1e" stroke-width="2" fill="none"></path></g></g><mask></mask><g transform="translate(1763.8069278353507 382.966662636827) rotate(0 59.439964294433594 12.5)"><text x="0" y="17.52" font-family="Virgil, Segoe UI Emoji" font-size="20px" fill="#1e1e1e" text-anchor="start" style="white-space: pre;" direction="ltr" dominant-baseline="alphabetic">- dao : Dao</text></g><g stroke-linecap="round"><g transform="translate(1747.037277946689 421.6100847357201) rotate(0 249.7187403620826 0.49093754876957973)"><path d="M0.36 0.38 C83.68 0.53, 417.39 1.09, 500.63 1.34 M-0.92 -0.47 C82.29 -0.72, 416.96 -0.67, 500.3 -0.6" stroke="#1e1e1e" stroke-width="2" fill="none"></path></g></g><mask></mask><g stroke-linecap="round"><g stroke-opacity="0.6" fill-opacity="0.6" transform="translate(612.9300117906166 1147.8956963736987) rotate(0 130.518962079978 0)"><path d="M-0.08 0.61 C43.4 0.79, 218.49 1.15, 262.05 0.88 M-1.58 -0.12 C41.72 -0.25, 217.93 -0.77, 261.64 -0.78" stroke="#1e1e1e" stroke-width="1" fill="none"></path></g></g><mask></mask><g stroke-linecap="round"><g stroke-opacity="0.6" fill-opacity="0.6" transform="translate(1168.9776890468586 989.445790898864) rotate(0 153.58699110463294 0.000011891557960552745)"><path d="M0.59 -0.73 C51.74 -0.87, 255.53 -1.31, 306.78 -1.11 M-0.56 1.5 C50.41 1.49, 254.23 0.36, 305.62 -0.16" stroke="#1e1e1e" stroke-width="1" fill="none"></path></g></g><mask></mask></svg>